# AST/ASF file generated using VICON BodyLanguage
# -----------------------------------------------
:version 1.10
:name VICON
:units
  mass 1.0
  length 0.45
  angle deg
:documentation
   .ast/.asf automatically generated from VICON data using
   VICON BodyBuilder and BodyLanguage model FoxedUp or BRILLIANT.MOD
:root
   order TX TY TZ RX RY RZ
   axis XYZ
   position 0 0 0  
   orientation 0 0 0 
:bonedata
  begin
     id 1 
     name lhipjoint
     direction 0.541323 -0.757556 0.364798 
     length 2.47576 
     axis 0 0 0  XYZ
  end
  begin
     id 2 
     name lfemur
     direction 0.34202 -0.939693 0  
     length 7.46493  
     axis 0 0 20  XYZ
    dof rx ry rz
    limits (-160.0 20.0)
           (-70.0 70.0)
           (-60.0 70.0)
  end
  begin
     id 3 
     name ltibia
     direction 0.34202 -0.939693 0   
     length 7.73805   
     axis 0 0 20   XYZ
    dof rx
    limits (-10.0 170.0)
  end
  begin
     id 4 
     name lfoot
     direction 0.107174 -0.294458 0.949636   
     length 2.25864   
     axis -90 7.62852e-016 20   XYZ
    dof rx rz
    limits (-45.0 90.0)
           (-70.0 20.0)
  end
  begin
     id 5 
     name ltoes
     direction 1.53606e-011 -4.21934e-011 1   
     length 1.12451   
     axis -90 7.62852e-016 20   XYZ
    dof rx
    limits (-90.0 20.0)
  end
  begin
     id 6 
     name rhipjoint
     direction -0.524745 -0.766967 0.36933   
     length 2.44538  
     axis 0 0 0  XYZ 
  end
  begin
     id 7 
     name rfemur
     direction -0.34202 -0.939693 0   
     length 7.61604   
     axis 0 0 -20   XYZ
    dof rx ry rz
    limits (-160.0 20.0)
           (-70.0 70.0)
           (-70.0 60.0)
  end
  begin
     id 8 
     name rtibia
     direction -0.34202 -0.939693 0   
     length 7.61056   
     axis 0 0 -20   XYZ
    dof rx
    limits (-10.0 170.0)
 end
 begin
     id 9 
     name rfoot
     direction -0.12616 -0.346623 0.929482   
     length 2.46372  
     axis -90 -7.62852e-016 -20   XYZ
    dof rx rz
    limits (-45.0 90.0)
           (-20.0 70.0)
  end
  begin
     id 10 
     name rtoes
     direction -1.53531e-011 -4.22004e-011 1   
     length 1.21611   
     axis -90 -7.62852e-016 -20   XYZ
    dof rx
    limits (-90.0 20.0)
  end
  begin
     id 11 
     name lowerback
     direction -0.000778023 0.997293 -0.0735223   
     length 2.06139   
     axis 0 0 0   XYZ
    dof rx ry rz
    limits (-20.0 45.0)
           (-30.0 30.0)
           (-30.0 30.0)
  end
  begin
     id 12 
     name upperback
     direction 0.0222598 0.999722 -0.0078355   
     length 2.06383   
     axis 0 0 0   XYZ
    dof rx ry rz
    limits (-20.0 45.0)
           (-30.0 30.0)
           (-30.0 30.0)
  end
  begin
     id 13 
     name thorax
     direction 0.0219654 0.999405 0.0265994   
     length 2.07163   
     axis 0 0 0   XYZ
    dof rx ry rz
    limits (-20.0 45.0)
           (-30.0 30.0)
           (-30.0 30.0)
  end
  begin
     id 14 
     name lowerneck
     direction 0.0213282 0.988147 0.15202   
     length 1.75969   
     axis 0 0 0   XYZ
    dof rx ry rz
    limits (-20.0 45.0)
           (-30.0 30.0)
           (-30.0 30.0)
  end
  begin
     id 15 
     name upperneck
     direction -0.0546456 0.982624 -0.177379   
     length 1.79244   
     axis 0 0 0   XYZ
    dof rx ry rz
    limits (-20.0 45.0)
           (-30.0 30.0)
           (-30.0 30.0)
  end
  begin
     id 16
     name head
     direction -0.0199987 0.996855 -0.076686  
     length 1.80555  
     axis 0 0 0   XYZ
    dof rx ry rz
    limits (-20.0 45.0)
           (-30.0 30.0)
           (-30.0 30.0)
  end
  begin
     id 17 
     name lclavicle
     direction 0.929565 0.363219 -0.063096  
     length 3.55722  
     axis 0 0 0   XYZ
    dof ry rz
    limits (-20.0 10.0)
           (0.0 20.0)
  end
  begin
     id 18 
     name lhumerus
     direction 1 -4.48993e-011 -2.36203e-027   
     length 4.92785   
     axis 180 -30 -90   XYZ
    dof rx ry rz
    limits (-60.0 90.0)
           (-90.0 90.0)
           (-90.0 90.0)
  end
  begin
     id 19
     name lradius
     direction 1 -4.48947e-011 2.02997e-027   
     length 3.44052   
     axis 180 -30 -90   XYZ
    dof rx
    limits (-10.0 170.0)
  end
  begin
     id 20
     name lwrist
     direction 1 -4.48962e-011 1.45991e-027   
     length 1.72026   
     axis 1.49639e-024 90 90   XYZ
    dof ry
    limits (-180.0 0.0)
 end
  begin
     id 21 
     name lhand
     direction 1 -4.48984e-011 2.91906e-027   
     length 0.654326   
     axis -1.863e-015 90 90   XYZ
    dof rx rz
    limits (-90.0 90.0)
           (-45.0 45.0)
  end
  begin
     id 22 
     name lfingers
     direction 1 -4.48961e-011 5.83968e-027   
     length 0.527534   
     axis -3.72598e-015 90 90   XYZ
    dof rx
    limits (0.0 90.0)
  end
  begin
     id 23
     name lthumb
     direction 0.707107 -6.34963e-011 0.707107   
     length 0.757437   
     axis -90 45 -6.68868e-015   XYZ
    dof rx rz
    limits (-45.0 45.0)
           (-45.0 45.0)
  end
  begin
     id 24 
     name rclavicle
     direction -0.902944 0.422599 -0.0781198   
     length 3.54432  
     axis 0 0 0   XYZ 
    dof ry rz
    limits (-10.0 20.0)
           (-20.0 0.0)
  end
  begin
     id 25 
     name rhumerus
     direction -1 -4.48953e-011 -4.75835e-028  
     length 5.09181   
     axis 180 30 90   XYZ
    dof rx ry rz
    limits (-90.0 60.0)
           (-90.0 90.0)
           (-90.0 90.0)
  end
  begin
     id 26 
     name rradius
     direction -1 -4.48986e-011 -3.25889e-027   
     length 3.49865   
     axis 180 30 90   XYZ
    dof rx
    limits (-10.0 170.0)
  end
  begin
     id 27 
     name rwrist
     direction -1 -4.48963e-011 1.45989e-027   
     length 1.74933   
     axis 1.49639e-024 -90 -90   XYZ
    dof ry
    limits (-180.0 0.0)
  end
  begin
     id 28
     name rhand
     direction -1 -4.49003e-011 2.91844e-027   
     length 0.66641   
     axis -1.863e-015 -90 -90   XYZ
    dof rx rz
    limits (-90.0 90.0)
           (-45.0 45.0)
  end
  begin
     id 29
     name rfingers
     direction -1 -4.48973e-011 5.83886e-027   
     length 0.537277   
     axis -3.72598e-015 -90 -90   XYZ
    dof rx
    limits (0.0 90.0)
  end
  begin
     id 30
     name rthumb
     direction -0.707107 -6.34976e-011 0.707107   
     length 0.771425   
     axis -90 -45 6.68868e-015   XYZ
    dof rx rz
    limits (-45.0 45.0)
           (-45.0 45.0)
  end
:hierarchy
  begin
    root lhipjoint rhipjoint lowerback
    lhipjoint lfemur
    lfemur ltibia
    ltibia lfoot
    lfoot ltoes
    rhipjoint rfemur
    rfemur rtibia
    rtibia rfoot
    rfoot rtoes
    lowerback upperback
    upperback thorax
    thorax lowerneck lclavicle rclavicle
    lowerneck upperneck
    upperneck head
    lclavicle lhumerus
    lhumerus lradius
    lradius lwrist
    lwrist lhand lthumb
    lhand lfingers
    rclavicle rhumerus
    rhumerus rradius
    rradius rwrist
    rwrist rhand rthumb
    rhand rfingers
  end

#!OML:ASF H:\LiuWeirdWalks\Patient Classification 1\Patient 1\Session 1\male.ASF
:FULLY-SPECIFIED
:DEGREES
1
root 0.0356611 18.001 -29.9636 3.05587 35.374 1.67091
lowerback -2.11926 9.65844 -5.07916
upperback 0.253938 13.0563 5.26844
thorax -0.929817 6.63439 8.18708
lowerneck -2.28004 16.0057 22.0336
upperneck 24.5617 28.0243 -21.0748
head 15.5508 13.4488 -6.87191
rclavicle -1.54605e-013 -4.77083e-014
rhumerus -27.2284 -0.072865 -73.0143
rradius 26.8144
rwrist -10.4031
rhand -16.7893 -1.18071
rfingers 7.12502
rthumb 9.43866 -30.9494
lclavicle -1.54605e-013 -4.77083e-014
lhumerus -33.6178 15.577 81.4732
lradius 23.9086
lwrist 4.78148
lhand -12.9863 0.0749111
lfingers 7.12502
lthumb 13.1064 29.6431
rfemur -0.577068 -12.0126 18.481
rtibia 24.3223
rfoot -17.9735 -36.4794
rtoes 0.47629
lfemur -10.6038 -11.9619 -17.788
ltibia 23.0563
lfoot -10.9834 -2.09278
ltoes -27.8133
2
root 0.0386331 17.9984 -29.9712 2.9247 35.2106 1.66335
lowerback -1.13962 9.5667 -3.8379
upperback -0.122335 12.8611 4.3154
thorax -1.32984 6.52089 6.36068
lowerneck -1.05743 15.9765 24.3305
upperneck 23.5146 27.96 -21.8776
head 15.4054 13.6524 -7.60316
rclavicle 6.95746e-016 3.18055e-015
rhumerus -27.6924 -1.16934 -74.4255
rradius 26.7036
rwrist -11.1894
rhand -17.417 -0.747896
rfingers 7.12502
rthumb 8.83292 -30.543
lclavicle 6.95746e-016 3.18055e-015
lhumerus -33.5831 14.3521 80.2769
lradius 24.0039
lwrist 4.91675
lhand -13.2669 0.401915
lfingers 7.12502
lthumb 12.8359 29.9872
rfemur -0.5003 -11.9602 18.4174
rtibia 24.3885
rfoot -17.8903 -36.3903
rtoes 0.441529
lfemur -10.4509 -11.9066 -17.8341
ltibia 23.0836
lfoot -11.008 -2.00926
ltoes -27.6646
3
root 0.0437983 17.9956 -29.9801 2.87302 35.0404 1.75163
lowerback -0.185659 9.46521 -2.65812
upperback -0.494867 12.6794 3.34543
thorax -1.73787 6.40882 4.58262
lowerneck 0.20907 15.8617 26.5536
upperneck 22.4527 27.8784 -22.7395
head 15.2475 13.8413 -8.36293
rclavicle -1.28017e-013 -2.8625e-014
rhumerus -28.1836 -2.38221 -75.7121
rradius 26.5226
rwrist -11.1121
rhand -17.5352 -0.934488
rfingers 7.12502
rthumb 8.71887 -30.7344
lclavicle -1.28017e-013 -2.8625e-014
lhumerus -33.5102 12.9347 79.2916
lradius 24.2026
lwrist 5.41992
lhand -12.9276 0.0847026
lfingers 7.12502
lthumb 13.163 29.6492
rfemur -0.439093 -12.009 18.2387
rtibia 24.4401
rfoot -17.9166 -36.1971
rtoes 0.417197
lfemur -10.3288 -11.85 -17.9713
ltibia 23.1115
lfoot -11.046 -1.93081
ltoes -27.4848
4
root 0.0473601 17.9925 -29.9879 2.67983 34.9303 1.68666
lowerback 0.814914 9.35055 -1.43381
upperback -0.957477 12.5092 2.44837
thorax -2.28759 6.29912 2.85618
lowerneck 0.640277 15.8855 27.5079
upperneck 22.0767 27.6241 -22.3025
head 14.9662 13.8266 -8.38798
rclavicle -2.18912e-014 -7.15625e-015
rhumerus -28.3683 -3.3453 -76.7556
rradius 25.7798
rwrist -10.4845
rhand -17.6723 -0.90134
rfingers 7.12502
rthumb 8.58654 -30.7067
lclavicle -2.18912e-014 -7.15625e-015
lhumerus -33.8463 10.6162 78.6236
lradius 24.8395
lwrist 6.93224
lhand -13.2825 0.732506
lfingers 7.12502
lthumb 12.8209 30.3188
rfemur -0.315505 -11.9519 18.2319
rtibia 24.4842
rfoot -17.922 -36.1557
rtoes 0.442046
lfemur -10.1629 -11.8714 -17.9699
ltibia 23.1404
lfoot -11.0468 -1.81774
ltoes -27.3429
5
root 0.0510394 17.9897 -29.9948 2.5485 34.8181 1.68156
lowerback 1.50927 9.31753 -0.668417
upperback -1.26745 12.4664 1.83121
thorax -2.68835 6.25585 1.71029
lowerneck 1.1733 15.7574 28.5614
upperneck 21.6104 27.3406 -22.3231
head 14.7463 13.806 -8.64477
rclavicle 4.04527e-014 2.38542e-015
rhumerus -28.7785 -4.20981 -77.3174
rradius 25.4091
rwrist -10.4136
rhand -17.7204 -0.930042
rfingers 7.12502
rthumb 8.54018 -30.7373
lclavicle 4.04527e-014 2.38542e-015
lhumerus -33.96 8.99513 78.2441
lradius 25.16
lwrist 7.55813
lhand -13.3131 0.890691
lfingers 7.12502
lthumb 12.7914 30.4788
rfemur -0.214678 -11.9267 18.1709
rtibia 24.5264
rfoot -17.9168 -36.0862
rtoes 0.431001
lfemur -10.0151 -11.8789 -18.0163
ltibia 23.1594
lfoot -11.057 -1.72246
ltoes -27.2055
6
root 0.0546713 17.9875 -30.001 2.44613 34.71 1.68262
lowerback 1.96469 9.28223 -0.225173
upperback -1.4568 12.4255 1.47272
thorax -2.96107 6.22003 1.03743
lowerneck 1.56422 15.6637 29.1328
upperneck 21.1878 27.1033 -22.2695
head 14.4865 13.7617 -8.77916
rclavicle 1.22103e-013 9.54166e-015
rhumerus -29.0909 -4.92109 -77.5084
rradius 25.0102
rwrist -10.1859
rhand -17.6943 -0.970226
rfingers 7.12502
rthumb 8.56539 -30.7765
lclavicle 1.22103e-013 9.54166e-015
lhumerus -34.0412 7.78717 78.1525
lradius 25.4278
lwrist 7.989
lhand -13.316 1.00162
lfingers 7.12502
lthumb 12.7885 30.5899
rfemur -0.129093 -11.9017 18.1121
rtibia 24.5457
rfoot -17.8888 -36.0235
rtoes 0.414239
lfemur -9.89513 -11.9046 -18.0621
ltibia 23.1812
lfoot -11.0668 -1.61087
ltoes -27.0716
7
root 0.0579545 17.9862 -30.0062 2.37916 34.6051 1.68946
lowerback 2.22032 9.26253 -0.0392485
upperback -1.55595 12.4032 1.30133
thorax -3.12746 6.20101 0.72139
lowerneck 1.81921 15.5983 29.3574
upperneck 20.8007 26.8838 -22.1483
head 14.2016 13.6921 -8.82172
rclavicle -4.2689e-014 -1.27222e-014
rhumerus -29.3737 -5.5451 -77.426
rradius 24.6319
rwrist -9.88631
rhand -17.6828 -0.976758
rfingers 7.12502
rthumb 8.57641 -30.7826
lclavicle -4.2689e-014 -1.27222e-014
lhumerus -34.0692 6.87238 78.2733
lradius 25.6379
lwrist 8.23287
lhand -13.2358 1.02675
lfingers 7.12502
lthumb 12.8658 30.6102
rfemur -0.0773433 -11.8655 18.0616
rtibia 24.5664
rfoot -17.8539 -35.9758
rtoes 0.392662
lfemur -9.80097 -11.9344 -18.1034
ltibia 23.1875
lfoot -11.0648 -1.49925
ltoes -26.932
